<?xml version="1.0" encoding="UTF-8"?>
<svg width="108px" height="28px" viewBox="0 0 108 28" version="1.1" xmlns="http://www.w3.org/2000/svg" xmlns:xlink="http://www.w3.org/1999/xlink">
    <!-- Generator: Sketch 58 (84663) - https://sketch.com -->
    <title>Bruce</title>
    <desc>Created with Sketch.</desc>
    <g id="Page-2" stroke="none" stroke-width="1" fill="none" fill-rule="evenodd">
        <g id="Artboard" transform="translate(-933.000000, -259.000000)" fill="#000000" fill-rule="nonzero">
            <g id="Group" transform="translate(781.000000, 229.000000)">
                <g id="Group-3" transform="translate(156.459530, 25.488251)">
                    <path d="M13.0655304,6.33283698 L14.6475617,6.33283698 C19.5596956,6.33283698 22.733492,7.74395568 24.169046,10.5662354 C24.6085014,11.1131131 24.8282257,11.6843965 24.8282257,12.2801026 L24.8282257,12.4119385 C24.8282257,13.8865553 22.8018788,15.4295086 18.7491242,17.0408448 L18.7491242,17.1726807 C20.6827276,18.871908 21.6495148,20.1463093 21.6495148,20.9959229 L21.6495148,21.7869385 C21.6495148,23.9256211 14.9991907,27.0994175 1.6983429,31.3084229 L-1.07021178,31.9676026 L-1.21669616,31.8357667 L-1.07021178,31.7039307 L-1.07021178,31.3084229 C-1.51943278,31.3084229 -1.74403991,31.2205332 -1.74403991,31.044751 L-1.87587585,30.5174073 L-0.542868034,29.9900635 L-0.542868034,29.8582276 L-0.674703972,29.8582276 L-2.4032196,30.1218995 L-2.4032196,29.8582276 C-1.78798215,29.7703365 -1.48036803,29.6385019 -1.48036803,29.4627198 L-1.61220397,29.4627198 L-2.4032196,29.7263917 L-2.53505553,29.5945557 L-2.66689147,29.5945557 L-3.4579071,29.7263917 L-3.58974303,29.7263917 L-3.58974303,29.5945557 L-3.32607116,29.1990479 L-3.32607116,29.067212 L-3.4579071,29.067212 L-4.11708678,29.1990479 L-4.24892272,29.067212 L-4.24892272,28.935376 C-3.41884045,28.2224819 -2.71572248,27.8660401 -2.13954772,27.8660401 L-2.4032196,26.5476807 L-2.31110898,26.3330371 C-1.42922761,24.3616889 1.6259788,19.5016402 6.8545929,11.7527589 C5.19442835,11.7527589 4.09092376,11.3133101 3.54404603,10.4343995 C3.20224744,10.3367427 2.85068846,9.71663175 2.48935853,8.57404792 C2.48935853,7.50958947 4.47176058,6.85041637 8.43662415,6.59650885 L13.0655304,6.33283698 Z M12.4063507,13.9939698 C15.062614,13.0759965 17.3086853,12.1531541 19.144632,11.2254151 C19.144632,10.9617419 18.1290171,10.8299073 16.097757,10.8299073 L14.2520538,10.8299073 L13.7829993,11.5235922 C12.8652296,12.9006297 12.4063507,13.7240821 12.4063507,13.9939698 Z M5.66806947,24.7019776 L5.66806947,24.8338135 C10.1798108,23.3298998 13.3926693,21.8308913 15.3067413,20.3367432 L12.8018585,20.3367432 C9.54012347,20.3367432 7.9092804,20.6443573 7.9092804,21.2595948 L5.66806947,24.7019776 Z M32.2731492,5.00083051 L33.7930695,4.99982917 C39.4864573,4.99982917 42.8457987,6.86992765 43.8711945,10.6101807 L44.0030304,11.3865479 L44.0030304,11.7674073 C44.0030304,12.8904598 41.449345,14.7605583 36.3418976,17.3777589 L36.5815172,18.406355 C37.7010729,23.2791759 38.2608429,26.7204592 38.2608429,28.7302979 L38.3926788,28.8621339 L38.3926788,28.9793214 L38.2608429,29.3748292 L38.3926788,30.5174073 L38.2608429,30.6492432 L38.0118195,30.6492432 C38.0118195,30.3074446 37.9239297,30.1365479 37.7481476,30.1365479 C37.7481476,30.3904554 37.6651406,30.5174073 37.4991242,30.5174073 L37.2354523,30.5174073 L37.1182648,30.3855714 L36.9864288,30.3855714 C36.8594751,30.7273699 36.7325232,30.8982667 36.6055695,30.8982667 L35.9610382,30.7664307 L35.7120148,31.0301026 C35.6534207,30.600413 35.4385791,30.3855714 35.0674835,30.3855714 C33.7100549,27.221493 32.5235433,23.564303 31.5079132,19.4138917 L25.7657257,21.332837 C25.2383793,22.5340149 24.8135789,23.212719 24.4913117,23.3689698 L24.3594757,24.013501 L23.9786163,24.013501 L24.4913117,22.607251 L24.4913117,22.4754151 L24.3594757,22.4754151 L23.7149445,23.8816651 L23.9786163,24.145337 C23.6563491,24.145337 23.0167071,25.034 22.059671,26.8113526 C21.9424829,26.8211183 21.6885792,27.3777533 21.2979523,28.4812745 C21.1221701,28.4812745 20.6973697,29.3308754 20.0235382,31.0301026 L19.8917023,31.0301026 C19.8917023,30.6394756 19.4669018,30.2976822 18.6172882,30.004712 L18.3682648,30.2683839 C18.3682648,30.0926017 18.2364302,30.004712 17.972757,30.004712 L17.5918976,30.1365479 C17.4063498,29.6775612 17.1524461,29.4236575 16.8301788,29.3748292 L16.8301788,28.9793214 C16.8301788,26.9187642 19.1690226,21.220579 23.8467804,11.8845948 C22.0596621,10.6736512 21.1661163,9.6970985 21.1661163,8.95490729 L21.1661163,8.32502448 C21.2344761,7.87580348 22.806726,7.10920959 25.8829132,6.02521979 C26.2991751,5.36298503 28.4292332,5.02152505 32.2731492,5.00083051 Z M28.5635773,15.0779542 L28.8272492,15.0779542 C33.9346966,12.8904432 37.0352515,11.1472966 38.129007,9.84846198 L38.129007,9.71662604 L35.5801788,9.59943854 L35.3311554,9.59943854 C32.0987174,9.59943854 30.4825226,9.98029411 30.4825226,10.7420167 L30.1362322,11.6181139 C29.3284174,13.6410888 28.8042035,14.794359 28.5635773,15.0779542 Z M46.903421,5.42463385 L47.5479523,5.42463385 C48.9053809,5.42463385 50.0137683,6.14728288 50.8731476,7.5926026 L50.9903351,8.10529792 C50.9903351,8.8181921 50.0528445,10.9519598 48.1778351,14.5066651 C46.2149347,18.3641063 45.2334992,21.8992272 45.2334992,25.1121339 L45.2334992,25.4929932 C47.4405414,24.0574392 49.2325157,22.3094098 50.6094757,20.2488526 L51.2204753,19.4636564 C54.0937751,15.7377977 55.8090382,13.0161558 56.3663117,11.2986573 L57.1280304,9.64338385 C57.3819379,9.64338385 57.5088898,9.516432 57.5088898,9.26252448 L57.6407257,9.13068854 L57.9043976,9.13068854 L57.9043976,9.64338385 L58.0215851,9.64338385 L58.098987,9.18837616 C58.3034628,8.04639705 58.4925044,7.4754151 58.6661163,7.4754151 L58.7979523,7.4754151 L58.7979523,7.98811042 L58.9151398,7.98811042 L58.9151398,6.96271979 L59.1788117,6.96271979 L59.1788117,7.34357917 C59.4815475,7.18732838 59.8624031,6.54768634 60.3213898,5.42463385 L60.4532257,5.42463385 C61.3028393,6.21565343 61.7276398,7.45099264 61.7276398,9.13068854 C61.7276398,14.7557167 58.1095119,21.1472543 50.8731476,28.3054932 C49.4864219,29.1648725 47.9092892,29.5945557 46.1417023,29.5945557 C42.8702015,29.5945557 40.6924889,28.3982786 39.6084992,26.0056885 L39.3594757,24.4676026 L39.3594757,23.8377198 C39.3594757,20.478328 40.0430626,17.4949594 41.410257,14.8875245 L44.7354523,7.07990729 C45.4581121,5.97638615 46.1807612,5.42463385 46.903421,5.42463385 Z M78.8956085,6.27424323 L79.847757,6.27424323 C82.21105,6.27424323 83.9004863,6.95783014 84.9161163,8.32502448 L84.9161163,9.55549323 C84.9161163,11.2937832 84.2764743,12.1629151 82.997171,12.1629151 C82.069432,11.8894762 81.0684655,11.7527589 79.9942413,11.7527589 C73.2949891,11.7527589 68.690543,14.9412035 66.1807648,21.3181885 L65.9024445,22.6951417 L65.9024445,23.1052979 C65.9024445,24.4822579 66.8155213,25.3465071 68.6417023,25.6980714 C69.7842861,25.9715102 71.2881773,26.1082276 73.153421,26.1082276 L75.6143585,26.1082276 L75.6143585,26.3865479 L75.0577179,26.3865479 L75.0577179,26.5183839 C75.2725627,26.5183839 75.5020526,26.6990461 75.7461945,27.060376 L75.8780304,27.060376 L75.8780304,27.4705323 L74.3838898,27.6170167 L74.3838898,27.7488526 L74.6475617,27.7488526 L74.3838898,28.5691651 L74.6475617,28.5691651 L74.6475617,28.8474854 L74.3838898,28.8474854 L74.3838898,28.9793214 C74.7452197,28.9793214 74.925882,29.1599836 74.925882,29.5213135 L75.2042023,29.5213135 L75.0577179,29.3894776 L75.0577179,29.2576417 L75.2042023,29.1111573 L76.0245148,29.1111573 L76.0245148,29.3894776 L76.1563507,29.5213135 L76.0245148,29.6677979 L75.6143585,29.6677979 L75.6143585,29.7996339 L75.8780304,30.0779542 L76.2881867,30.0779542 L76.1563507,29.9314698 L76.1563507,29.7996339 L76.566507,29.6677979 L76.9766632,29.7996339 C76.9766632,30.6199505 73.7882185,31.0301026 67.4112335,31.0301026 C63.3877759,31.0301026 60.5606557,29.0721144 58.9297882,25.1560792 L58.9297882,23.3689698 C58.9297882,19.140433 61.8008533,14.6287594 67.5430695,9.83381354 C70.9317583,7.4607548 74.7159001,6.27424323 78.8956085,6.27424323 Z M75.8780304,26.6502198 L76.6983429,26.6502198 L76.6983429,26.9285401 L75.8780304,26.9285401 L75.8780304,26.6502198 Z M99.3448273,5.89338385 C99.3448273,6.22541676 99.5108412,6.39143073 99.8428742,6.39143073 L99.8428742,6.64045417 L99.4620148,6.64045417 L99.4620148,6.7722901 C99.8819388,6.7722901 100.091898,6.85529709 100.091898,7.02131354 L100.091898,7.15314948 L99.5938507,7.15314948 C99.5938507,7.407057 99.8428717,7.53400885 100.340921,7.53400885 L100.340921,7.78303229 L99.9600617,7.78303229 L99.9600617,7.90021979 L101.468851,7.90021979 L102.611429,8.5301026 L102.479593,8.66193854 L102.479593,8.77912604 C102.899517,8.77912604 103.109476,8.86701579 103.109476,9.04279792 C103.109476,9.3455338 101.556757,9.67756173 98.4512726,10.0388917 C97.3965798,10.0388917 95.3897639,10.6248233 92.4307648,11.7967042 L91.0391632,14.5652589 L91.1709992,14.5652589 C91.6202201,14.3992424 92.9190353,14.2722905 95.0674835,14.1843995 L95.316507,14.5652589 L94.9356476,14.6970948 L94.9356476,14.8142823 C95.6094791,14.8142823 95.9463898,14.8972893 95.9463898,15.0633057 L95.316507,15.3269776 L95.316507,15.4441651 L95.5655304,15.4441651 L95.4483429,15.8250245 C95.4483429,16.2449485 95.7803708,16.5818591 96.4444367,16.8357667 L96.4444367,16.9529542 L96.3272492,17.0847901 L96.3272492,17.2019776 C96.7471731,17.2019776 96.957132,17.2898673 96.957132,17.4656495 L96.957132,17.582837 C96.957132,17.8367445 94.3155568,18.5056831 89.0323273,19.5896729 C88.3780271,19.5896729 87.5381918,20.8494259 86.512796,23.3689698 L95.5655304,21.8601807 L95.5655304,22.1092042 L95.6973663,22.1092042 L96.3272492,21.9773682 C96.4346716,22.3972922 96.6446304,22.607251 96.957132,22.607251 L96.957132,22.9881104 C96.7520528,22.9881104 96.542094,23.1150623 96.3272492,23.3689698 L96.0635773,23.3689698 L96.0635773,23.4861573 L96.825296,23.4861573 L96.825296,23.7498292 L96.1954132,23.7498292 L96.3272492,23.8670167 L96.3272492,23.9988526 L96.1954132,24.1160401 C97.4356538,24.1160401 98.1045924,24.3259989 98.2022492,24.7459229 L98.0850617,24.8777589 C98.5049856,24.9363529 98.7149445,25.0633048 98.7149445,25.2586182 C97.9727533,25.7371362 95.45813,26.36213 91.1709992,27.1336182 L90.0818372,27.3232156 C85.7786284,28.0962343 83.6270538,28.7898652 83.6270538,29.404126 C83.5098658,29.8435814 83.133893,30.2195542 82.4991242,30.5320557 L82.3672882,30.5320557 L81.6202179,29.9021729 L81.356546,29.9021729 L80.7266632,30.0340089 C80.7266632,29.819164 80.3116283,29.6092052 79.481546,29.404126 L79.1006867,29.5213135 L78.9688507,29.404126 L78.9688507,29.2722901 L79.1006867,28.8914307 L78.8516632,28.8914307 L78.7198273,29.0232667 L78.6026398,29.0232667 L78.4708038,28.8914307 L78.4708038,28.7742432 L78.5883613,28.380792 C79.4698566,25.5919595 82.53123,18.682155 87.7725617,7.65119635 C87.7725617,6.8113484 88.3584933,6.30842375 89.5303742,6.14240729 L94.4376007,6.27424323 L99.3448273,5.89338385 Z" id="Bruce"></path>
                </g>
            </g>
        </g>
    </g>
</svg>